<svg clip-rule="evenodd" fill-rule="evenodd" height="512" image-rendering="optimizeQuality" shape-rendering="geometricPrecision" text-rendering="geometricPrecision" viewBox="0 0 299.861 299.861" width="512" xmlns="http://www.w3.org/2000/svg"><g id="Layer_x0020_1"><circle cx="149.93" cy="149.93" fill="#ec3428" r="149.931"/><g id="_516761592"><g><g><g><path id="_516762504" d="m174.316 109.823h-14.2765c-1.1688 0-2.1167-.9479-2.1167-2.1167s.9479-2.1167 2.1167-2.1167h14.2765c1.1688 0 2.1167.9479 2.1167 2.1167s-.9476 2.1167-2.1167 2.1167zm-33.3122 0h-68.554c-1.1688 0-2.1167-.9479-2.1167-2.1167s.9479-2.1167 2.1167-2.1167h68.554c1.1688 0 2.1167.9479 2.1167 2.1167s-.9476 2.1167-2.1167 2.1167z"/></g><g><path id="_516762480" d="m174.316 125.215h-52.6274c-1.1688 0-2.1167-.9478-2.1167-2.1166 0-1.1689.9479-2.1167 2.1167-2.1167h52.6274c1.1688 0 2.1167.9478 2.1167 2.1167 0 1.1688-.9476 2.1166-2.1167 2.1166zm-71.6631 0h-30.2031c-1.1688 0-2.1167-.9478-2.1167-2.1166 0-1.1689.9479-2.1167 2.1167-2.1167h30.2031c1.1688 0 2.1167.9478 2.1167 2.1167 0 1.1688-.9479 2.1166-2.1167 2.1166z"/></g><g><path id="_516762576" d="m174.316 140.608h-72.7828c-1.1688 0-2.1167-.9479-2.1167-2.1167s.9479-2.1167 2.1167-2.1167h72.7828c1.1688 0 2.1167.9479 2.1167 2.1167s-.9476 2.1167-2.1167 2.1167zm-91.8183 0h-10.0479c-1.1688 0-2.1167-.9479-2.1167-2.1167s.9479-2.1167 2.1167-2.1167h10.0475c1.1688 0 2.1167.9479 2.1167 2.1167s-.9476 2.1167-2.1163 2.1167z"/></g><g><path id="_516762216" d="m173.674 156.001h-18.1141c-1.1688 0-2.1166-.9479-2.1166-2.1167s.9478-2.1167 2.1166-2.1167h18.1141c1.1688 0 2.1167.9479 2.1167 2.1167s-.9479 2.1167-2.1167 2.1167zm-37.1493 0h-64.0752c-1.1688 0-2.1167-.9479-2.1167-2.1167s.9479-2.1167 2.1167-2.1167h64.0752c1.1688 0 2.1167.9479 2.1167 2.1167s-.9476 2.1167-2.1167 2.1167z"/></g><g><path id="_516762096" d="m158.281 171.394h-41.072c-1.1688 0-2.1166-.9479-2.1166-2.1167s.9478-2.1167 2.1166-2.1167h41.072c1.1688 0 2.1167.9479 2.1167 2.1167s-.948 2.1167-2.1167 2.1167zm-60.1076 0h-25.7242c-1.1688 0-2.1167-.9479-2.1167-2.1167s.9479-2.1167 2.1167-2.1167h25.7239c1.1688 0 2.1167.9479 2.1167 2.1167s-.9476 2.1167-2.1164 2.1167z"/></g></g><g><path id="_516762648" d="m142.889 186.786h-41.3556c-1.1688 0-2.1167-.9479-2.1167-2.1167s.9479-2.1166 2.1167-2.1166h41.3556c1.1688 0 2.1166.9478 2.1166 2.1166s-.9476 2.1167-2.1166 2.1167zm-60.3911 0h-10.0479c-1.1688 0-2.1167-.9479-2.1167-2.1167s.9479-2.1166 2.1167-2.1166h10.0479c1.1688 0 2.1167.9478 2.1167 2.1166s-.9476 2.1167-2.1167 2.1167z"/></g><g><path id="_516762192" d="m174.316 202.179h-7.8176c-1.1688 0-2.1167-.9479-2.1167-2.1167s.9479-2.1167 2.1167-2.1167h7.8176c1.1688 0 2.1167.9479 2.1167 2.1167s-.9476 2.1167-2.1167 2.1167zm-37.791 0h-64.0752c-1.1688 0-2.1167-.9479-2.1167-2.1167s.9479-2.1167 2.1167-2.1167h64.0752c1.1688 0 2.1167.9479 2.1167 2.1167s-.9476 2.1167-2.1167 2.1167z"/></g><g><path id="_516761568" d="m174.316 217.572h-57.1064c-1.1688 0-2.1166-.9478-2.1166-2.1166s.9478-2.1167 2.1166-2.1167h57.1064c1.1688 0 2.1167.9479 2.1167 2.1167s-.9476 2.1166-2.1167 2.1166zm-76.142 0h-25.7242c-1.1688 0-2.1167-.9478-2.1167-2.1166s.9479-2.1167 2.1167-2.1167h25.7239c1.1688 0 2.1167.9479 2.1167 2.1167s-.9476 2.1166-2.1164 2.1166z"/></g></g><g><g><path id="_516761448" d="m179.867 232.218h-112.968c-4.0141 0-7.2793-3.2653-7.2793-7.2789v-150.017c0-4.0137 3.2652-7.279 7.2793-7.279h94.8314c.5613 0 1.0996.2229 1.4965.6199l23.2996 23.2992c.3972.397.6202.9352.6202 1.4968v49.4695c0 1.1688-.9479 2.1166-2.1167 2.1166s-2.1167-.9478-2.1167-2.1166v-48.5924l-22.0596-22.0597h-93.9547c-1.6792 0-3.0455 1.3663-3.0455 3.0455v150.017c0 1.6792 1.3663 3.0454 3.0455 3.0454l112.969.0003c1.6796 0 3.0458-1.3663 3.0458-3.0455v-43.4083c0-1.1688.9479-2.1167 2.1167-2.1167s2.1167.9479 2.1167 2.1167v43.4083c-.0004 4.0135-3.2658 7.2788-7.2796 7.2788z"/></g><g><path id="_516761304" d="m185.036 95.1761c-.0022 0-.005 0-.0071 0h-18.137c-4.0138 0-7.2792-3.2653-7.2792-7.2792v-18.1371c0-.8562.5158-1.6282 1.3067-1.9555.7903-.3277 1.7008-.1471 2.3064.4589l23.2004 23.2002c.4452.388.7264.9592.7264 1.5963 0 1.1688-.9476 2.1164-2.1166 2.1164zm-21.1899-20.3063v13.0271c0 1.6796 1.3662 3.0459 3.0458 3.0459h13.027z"/></g></g><g><path id="_516761976" d="m145.508 98.5462h-67.5504c-2.8783 0-5.22-2.3417-5.22-5.22v-9.186c0-2.8783 2.3417-5.22 5.22-5.22l67.5504-.0001c2.8783 0 5.22 2.3417 5.22 5.22v9.1856c0 2.8788-2.3417 5.2205-5.22 5.2205zm-67.5504-15.3928c-.5348 0-.9867.4519-.9867.9867v9.1856c0 .5348.4519.9867.9867.9867l67.5504.0001c.5348 0 .9867-.4519.9867-.9867v-9.1856c0-.5348-.4519-.9867-.9867-.9867z"/></g><g><g><path id="_516761736" d="m131.592 217.572c-.5528 0-1.094-.2166-1.4976-.6205-.5666-.5669-.7646-1.4055-.5108-2.166l9.757-29.245c.1038-.3119.2791-.5948.5112-.8269l74.7675-74.7675c2.0176-2.0176 4.709-3.1284 7.5778-3.1284s5.5605 1.1109 7.5777 3.1284l7.3389 7.3388c2.0176 2.0176 3.1284 4.7085 3.1284 7.578 0 2.8692-1.111 5.5606-3.1288 7.5778l-74.7667 74.7671c-.2322.2325-.5158.4078-.828.5114l-29.2581 9.7446c-.2191.073-.4448.1082-.6685.1082zm11.6068-30.2179-8.2592 24.7555 24.7679-8.2486 74.4137-74.4138c1.2178-1.2177 1.8889-2.8459 1.8889-4.5844s-.6707-3.3666-1.8889-4.5847l-7.3388-7.3388c-1.2177-1.2177-2.8458-1.8888-4.5844-1.8888-1.7385 0-3.3665.6707-4.5847 1.8888z"/></g><g><path id="_516761904" d="m218.756 149.921c-.5414 0-1.0833-.2067-1.4965-.6199l-19.5008-19.5008c-.827-.8265-.827-2.1668 0-2.9933.8262-.8266 2.167-.8266 2.9929 0l19.5009 19.5008c.8269.8265.8269 2.1668 0 2.9933-.4131.4132-.955.6199-1.4965.6199zm6.9067-6.9063c-.5414 0-1.0833-.2066-1.4965-.6198l-19.5012-19.5013c-.827-.8265-.827-2.1668 0-2.9933.8262-.8266 2.167-.8266 2.9929 0l19.5012 19.5012c.827.8266.827 2.1668 0 2.9934-.413.413-.9549.6198-1.4964.6198z"/></g><g><path id="_516761400" d="m142.558 213.919c-1.0008 0-1.8905-.713-2.0789-1.7322-.2579-1.3945-.9268-2.6645-1.9343-3.672-1.0096-1.0093-2.2821-1.6789-3.6795-1.9353-1.1497-.2113-1.9109-1.3144-1.6997-2.4641.2112-1.1498 1.3159-1.911 2.4641-1.6994 2.2458.4124 4.2887 1.4863 5.9083 3.1059 1.6164 1.6161 2.6896 3.6548 3.1038 5.896.2126 1.1497-.5472 2.2539-1.6966 2.4663-.13.0232-.2598.0348-.3872.0348z"/></g></g></g><path d="m163.846 87.8969c0 1.6796 1.3662 3.0459 3.0458 3.0459h13.027l-16.0728-16.073z" fill="#2a3e4d"/><path d="m146.495 93.3258v-9.1856c0-.5348-.4519-.9867-.9867-.9867l-67.5504-.0001c-.5348 0-.9867.4519-.9867.9867v9.1856c0 .5348.4519.9867.9867.9867l67.5504.0001c.5348 0 .9867-.4519.9867-.9867z" fill="#3a556a"/><path d="m206.162 124.39-3.913 3.913 16.508 16.508 3.913-3.913z" fill="#e0e0e0"/><path d="m209.155 121.397 16.5079 16.5079 8.4578-8.4578c1.2178-1.2177 1.8889-2.8459 1.8889-4.5844s-.6707-3.3666-1.8889-4.5847l-7.3388-7.3388c-1.2177-1.2177-2.8458-1.8888-4.5844-1.8888-1.7385 0-3.3665.6707-4.5847 1.8888z" fill="#ff8b00"/><path d="m215.763 147.804-16.5079-16.5079-54.9147 54.9134 16.5087 16.5085 4.128-4.128c.016-.0165.0322-.0327.0487-.0487z" fill="#ff8b00"/><path d="m138.544 208.515c-.5728-.5726-1.2302-1.0359-1.947-1.3764l-1.6583 4.9704 4.9768-1.6575c-.3401-.7128-.8017-1.3667-1.3715-1.9365z" fill="#3a556a"/><path d="m141.538 205.522c1.0399 1.0397 1.855 2.2543 2.4144 3.5853l12.9786-4.3224-14.6579-14.6572-4.3293 12.9763c1.3342.5594 2.5519 1.3757 3.5942 2.418z" fill="#ffd47d"/><path d="m72.4496 120.982h30.2031c1.1688 0 2.1167.9478 2.1167 2.1167 0 1.1688-.9479 2.1166-2.1167 2.1166h-30.2031c-1.1688 0-2.1167-.9478-2.1167-2.1166 0-1.1689.9479-2.1167 2.1167-2.1167zm0 30.7855h64.0752c1.1688 0 2.1167.9479 2.1167 2.1167s-.9476 2.1167-2.1167 2.1167h-64.0752c-1.1688 0-2.1167-.9479-2.1167-2.1167s.9479-2.1167 2.1167-2.1167zm44.7598 15.3928h40.1948l11.1594-11.1594h-13.0036c-1.1688 0-2.1166-.9479-2.1166-2.1167s.9478-2.1167 2.1166-2.1167h17.237l10.116-10.116v-46.4753h-16.0207c-4.0138 0-7.2792-3.2653-7.2792-7.2792v-16.0205h-92.7144c-1.6792 0-3.0455 1.3663-3.0455 3.0455v150.017c0 1.6792 1.3663 3.0454 3.0455 3.0454l112.969.0003c1.6796 0 3.0458-1.3663 3.0458-3.0455v-38.2991l-11.3051 11.3052h2.7079c1.1688 0 2.1167.9479 2.1167 2.1167s-.9476 2.1167-2.1167 2.1167h-6.9413l-5.0284 5.0284c-.2322.2325-.5158.4078-.828.5114l-16.8725 5.6195h29.6702c1.1688 0 2.1167.9479 2.1167 2.1167s-.9476 2.1166-2.1167 2.1166h-42.7243-14.3821c-1.1688 0-2.1166-.9478-2.1166-2.1166s.9478-2.1167 2.1166-2.1167h12.8564l3.7231-11.1593h-61.3393c-1.1688 0-2.1167-.9479-2.1167-2.1167s.9479-2.1167 2.1167-2.1167h62.7517l3.723-11.1591h-37.3913c-1.1688 0-2.1167-.9479-2.1167-2.1167s.9479-2.1166 2.1167-2.1166h40.4783l11.1595-11.1595h-35.9614c-1.1688 0-2.1166-.9479-2.1166-2.1167s.9478-2.1167 2.1166-2.1167zm-34.7123-30.7855c1.1688 0 2.1167.9479 2.1167 2.1167s-.9476 2.1167-2.1163 2.1167h-10.0479c-1.1688 0-2.1167-.9479-2.1167-2.1167s.9479-2.1167 2.1167-2.1167zm-10.0475 30.7855h25.7239c1.1688 0 2.1167.9479 2.1167 2.1167s-.9476 2.1167-2.1164 2.1167h-25.7242c-1.1688 0-2.1167-.9479-2.1167-2.1167s.9479-2.1167 2.1167-2.1167zm0 15.3929h10.0479c1.1688 0 2.1167.9478 2.1167 2.1166s-.9476 2.1167-2.1167 2.1167h-10.0479c-1.1688 0-2.1167-.9479-2.1167-2.1167s.9479-2.1166 2.1167-2.1166zm29.0834-46.1784h72.7828c1.1688 0 2.1167.9479 2.1167 2.1167s-.9476 2.1167-2.1167 2.1167h-72.7828c-1.1688 0-2.1167-.9479-2.1167-2.1167s.9479-2.1167 2.1167-2.1167zm18.0387-13.2761c0-1.1689.9479-2.1167 2.1167-2.1167h52.6274c1.1688 0 2.1167.9478 2.1167 2.1167 0 1.1688-.9476 2.1166-2.1167 2.1166h-52.6274c-1.1688 0-2.1167-.9478-2.1167-2.1166zm-47.1221 90.2396h25.7239c1.1688 0 2.1167.9479 2.1167 2.1167s-.9476 2.1166-2.1164 2.1166h-25.7242c-1.1688 0-2.1167-.9478-2.1167-2.1166s.9479-2.1167 2.1167-2.1167zm68.554-103.515h-68.554c-1.1688 0-2.1167-.9479-2.1167-2.1167s.9479-2.1167 2.1167-2.1167h68.554c1.1688 0 2.1167.9479 2.1167 2.1167s-.9476 2.1167-2.1167 2.1167zm4.5047-11.2766h-67.5504c-2.8783 0-5.22-2.3417-5.22-5.22v-9.186c0-2.8783 2.3417-5.22 5.22-5.22l67.5504-.0001c2.8783 0 5.22 2.3417 5.22 5.22v9.1856c0 2.8788-2.3417 5.2205-5.22 5.2205zm28.8075 11.2766h-14.2765c-1.1688 0-2.1167-.9479-2.1167-2.1167s.9479-2.1167 2.1167-2.1167h14.2765c1.1688 0 2.1167.9479 2.1167 2.1167s-.9476 2.1167-2.1167 2.1167z" fill="#f5f5f5"/><g id="_516760080"><path id="_516761136" d="m160.85 207.827c-.5414 0-1.0833-.2066-1.4965-.6201l-19.5017-19.5008c-.8265-.8266-.8265-2.1669 0-2.993.8266-.8269 2.1668-.8269 2.9934 0l19.5012 19.5009c.827.8265.827 2.1668 0 2.9929-.4129.4133-.9548.6201-1.4964.6201z"/></g></g></svg>