<svg id="Layer_1" viewBox="0 0 512 512" xmlns="http://www.w3.org/2000/svg" data-name="Layer 1"><path d="m459.036 374.321h-406.072a52.966 52.966 0 0 0 0 105.932h406.072a52.966 52.966 0 0 0 0-105.932zm-347.159-182.444c0-79.477 64.653-144.126 144.123-144.126s144.123 64.649 144.123 144.126a143.655 143.655 0 0 1 -41.962 101.555 103.591 103.591 0 0 0 -68.083-82.314 57.776 57.776 0 1 0 -68.156 0 103.593 103.593 0 0 0 -68.083 82.314 143.655 143.655 0 0 1 -41.962-101.555zm304.248 0c0-88.3-71.833-160.127-160.124-160.127s-160.126 71.832-160.126 160.127 71.833 160.123 160.125 160.123 160.124-71.833 160.124-160.123zm-10.179 235.412a8 8 0 0 1 8-8h3.7l-2.62-2.627a8 8 0 1 1 11.314-11.312l2.62 2.623v-3.7a8 8 0 1 1 16 0v3.7l2.622-2.623a8 8 0 1 1 11.318 11.312l-2.62 2.627h3.706a8 8 0 0 1 0 16h-3.706l2.62 2.623a8 8 0 1 1 -11.314 11.307l-2.622-2.618v3.708a8 8 0 1 1 -16 0v-3.709l-2.62 2.618a8 8 0 1 1 -11.314-11.307l2.62-2.623h-3.7a8 8 0 0 1 -8-8zm-72.386 0a8 8 0 0 1 8-8h3.708l-2.62-2.627a8 8 0 1 1 11.311-11.312l2.623 2.623v-3.7a8 8 0 1 1 16 0v3.7l2.622-2.623a8 8 0 1 1 11.312 11.312l-2.62 2.627h3.704a8 8 0 0 1 0 16h-3.707l2.62 2.623a8 8 0 1 1 -11.313 11.307l-2.62-2.619v3.708a8 8 0 1 1 -16 0v-3.708l-2.623 2.618a8 8 0 0 1 -11.311-11.307l2.62-2.623h-3.708a8 8 0 0 1 -8-8zm-72.387 0a8 8 0 0 1 8-8h3.705l-2.62-2.627a8 8 0 1 1 11.314-11.312l2.62 2.623v-3.7a8 8 0 1 1 16 0v3.7l2.621-2.623a8 8 0 1 1 11.314 11.312l-2.622 2.627h3.707a8 8 0 0 1 0 16h-3.707l2.622 2.623a8 8 0 1 1 -11.314 11.307l-2.621-2.618v3.708a8 8 0 1 1 -16 0v-3.709l-2.62 2.618a8 8 0 0 1 -11.314-11.307l2.62-2.623h-3.705a8 8 0 0 1 -8-8zm-72.387 0a8 8 0 0 1 8-8h3.707l-2.622-2.627a8 8 0 1 1 11.314-11.312l2.622 2.623v-3.7a8 8 0 1 1 16 0v3.7l2.62-2.623a8 8 0 1 1 11.314 11.312l-2.62 2.627h3.7a8 8 0 1 1 0 16h-3.7l2.62 2.623a8 8 0 1 1 -11.314 11.307l-2.62-2.618v3.708a8 8 0 1 1 -16 0v-3.709l-2.622 2.618a8 8 0 1 1 -11.314-11.307l2.622-2.623h-3.707a8.005 8.005 0 0 1 -8-8zm-72.386 0a8 8 0 0 1 8-8h3.7l-2.62-2.627a8 8 0 1 1 11.32-11.312l2.62 2.623v-3.7a8 8 0 1 1 16 0v3.7l2.623-2.623a8 8 0 1 1 11.312 11.312l-2.621 2.627h3.707a8 8 0 0 1 0 16h-3.707l2.621 2.623a8 8 0 1 1 -11.312 11.307l-2.623-2.618v3.708a8 8 0 1 1 -16 0v-3.709l-2.62 2.618a8 8 0 1 1 -11.314-11.307l2.62-2.623h-3.7a8 8 0 0 1 -8-8zm-18.345 8h-3.707l2.62 2.623a8 8 0 1 1 -11.314 11.307l-2.62-2.618v3.708a8 8 0 1 1 -16 0v-3.709l-2.621 2.618a8 8 0 0 1 -11.313-11.306l2.622-2.623h-3.708a8 8 0 1 1 0-16h3.707l-2.621-2.627a8 8 0 1 1 11.313-11.312l2.621 2.623v-3.7a8 8 0 1 1 16 0v3.7l2.62-2.623a8 8 0 1 1 11.314 11.312l-2.62 2.627h3.707a8 8 0 0 1 0 16z" fill="#fc0005" fill-rule="evenodd"/></svg>